<svg width="1920" height="1080" viewBox="0 0 1920 1080" fill="none" xmlns="http://www.w3.org/2000/svg">
<line y1="1079.5" x2="1920" y2="1079.5" stroke="black" stroke-opacity="0.5"/>
<line y1="1076.5" x2="1920" y2="1076.5" stroke="black" stroke-opacity="0.5"/>
<line y1="1073.5" x2="1920" y2="1073.5" stroke="black" stroke-opacity="0.5"/>
<line y1="1070.5" x2="1920" y2="1070.5" stroke="black" stroke-opacity="0.5"/>
<line y1="1067.5" x2="1920" y2="1067.5" stroke="black" stroke-opacity="0.5"/>
<line y1="1064.5" x2="1920" y2="1064.5" stroke="black" stroke-opacity="0.5"/>
<line y1="1061.5" x2="1920" y2="1061.5" stroke="black" stroke-opacity="0.5"/>
<line y1="1058.5" x2="1920" y2="1058.5" stroke="black" stroke-opacity="0.5"/>
<line y1="1055.5" x2="1920" y2="1055.5" stroke="black" stroke-opacity="0.5"/>
<line y1="1052.5" x2="1920" y2="1052.5" stroke="black" stroke-opacity="0.5"/>
<line y1="1049.5" x2="1920" y2="1049.5" stroke="black" stroke-opacity="0.5"/>
<line y1="1046.5" x2="1920" y2="1046.5" stroke="black" stroke-opacity="0.5"/>
<line y1="1043.5" x2="1920" y2="1043.5" stroke="black" stroke-opacity="0.5"/>
<line y1="1040.5" x2="1920" y2="1040.5" stroke="black" stroke-opacity="0.5"/>
<line y1="1037.5" x2="1920" y2="1037.5" stroke="black" stroke-opacity="0.5"/>
<line y1="1034.5" x2="1920" y2="1034.5" stroke="black" stroke-opacity="0.5"/>
<line y1="1031.5" x2="1920" y2="1031.5" stroke="black" stroke-opacity="0.5"/>
<line y1="1028.5" x2="1920" y2="1028.5" stroke="black" stroke-opacity="0.5"/>
<line y1="1025.5" x2="1920" y2="1025.5" stroke="black" stroke-opacity="0.5"/>
<line y1="1022.5" x2="1920" y2="1022.5" stroke="black" stroke-opacity="0.5"/>
<line y1="1019.5" x2="1920" y2="1019.5" stroke="black" stroke-opacity="0.5"/>
<line y1="1016.5" x2="1920" y2="1016.5" stroke="black" stroke-opacity="0.5"/>
<line y1="1013.5" x2="1920" y2="1013.5" stroke="black" stroke-opacity="0.5"/>
<line y1="1010.5" x2="1920" y2="1010.5" stroke="black" stroke-opacity="0.5"/>
<line y1="1007.5" x2="1920" y2="1007.5" stroke="black" stroke-opacity="0.5"/>
<line y1="1004.5" x2="1920" y2="1004.5" stroke="black" stroke-opacity="0.5"/>
<line y1="1001.5" x2="1920" y2="1001.5" stroke="black" stroke-opacity="0.5"/>
<line y1="998.5" x2="1920" y2="998.5" stroke="black" stroke-opacity="0.5"/>
<line y1="995.5" x2="1920" y2="995.5" stroke="black" stroke-opacity="0.5"/>
<line y1="992.5" x2="1920" y2="992.5" stroke="black" stroke-opacity="0.5"/>
<line y1="989.5" x2="1920" y2="989.5" stroke="black" stroke-opacity="0.5"/>
<line y1="986.5" x2="1920" y2="986.5" stroke="black" stroke-opacity="0.5"/>
<line y1="983.5" x2="1920" y2="983.5" stroke="black" stroke-opacity="0.5"/>
<line y1="980.5" x2="1920" y2="980.5" stroke="black" stroke-opacity="0.5"/>
<line y1="977.5" x2="1920" y2="977.5" stroke="black" stroke-opacity="0.5"/>
<line y1="974.5" x2="1920" y2="974.5" stroke="black" stroke-opacity="0.5"/>
<line y1="971.5" x2="1920" y2="971.5" stroke="black" stroke-opacity="0.5"/>
<line y1="968.5" x2="1920" y2="968.5" stroke="black" stroke-opacity="0.5"/>
<line y1="965.5" x2="1920" y2="965.5" stroke="black" stroke-opacity="0.5"/>
<line y1="962.5" x2="1920" y2="962.5" stroke="black" stroke-opacity="0.5"/>
<line y1="959.5" x2="1920" y2="959.5" stroke="black" stroke-opacity="0.5"/>
<line y1="956.5" x2="1920" y2="956.5" stroke="black" stroke-opacity="0.5"/>
<line y1="953.5" x2="1920" y2="953.5" stroke="black" stroke-opacity="0.5"/>
<line y1="950.5" x2="1920" y2="950.5" stroke="black" stroke-opacity="0.5"/>
<line y1="947.5" x2="1920" y2="947.5" stroke="black" stroke-opacity="0.5"/>
<line y1="944.5" x2="1920" y2="944.5" stroke="black" stroke-opacity="0.5"/>
<line y1="941.5" x2="1920" y2="941.5" stroke="black" stroke-opacity="0.5"/>
<line y1="938.5" x2="1920" y2="938.5" stroke="black" stroke-opacity="0.5"/>
<line y1="935.5" x2="1920" y2="935.5" stroke="black" stroke-opacity="0.5"/>
<line y1="932.5" x2="1920" y2="932.5" stroke="black" stroke-opacity="0.5"/>
<line y1="929.5" x2="1920" y2="929.5" stroke="black" stroke-opacity="0.5"/>
<line y1="926.5" x2="1920" y2="926.5" stroke="black" stroke-opacity="0.5"/>
<line y1="923.5" x2="1920" y2="923.5" stroke="black" stroke-opacity="0.5"/>
<line y1="920.5" x2="1920" y2="920.5" stroke="black" stroke-opacity="0.5"/>
<line y1="917.5" x2="1920" y2="917.5" stroke="black" stroke-opacity="0.5"/>
<line y1="914.5" x2="1920" y2="914.5" stroke="black" stroke-opacity="0.5"/>
<line y1="911.5" x2="1920" y2="911.5" stroke="black" stroke-opacity="0.5"/>
<line y1="908.5" x2="1920" y2="908.5" stroke="black" stroke-opacity="0.5"/>
<line y1="905.5" x2="1920" y2="905.5" stroke="black" stroke-opacity="0.5"/>
<line y1="902.5" x2="1920" y2="902.5" stroke="black" stroke-opacity="0.5"/>
<line y1="899.5" x2="1920" y2="899.5" stroke="black" stroke-opacity="0.5"/>
<line y1="896.5" x2="1920" y2="896.5" stroke="black" stroke-opacity="0.5"/>
<line y1="893.5" x2="1920" y2="893.5" stroke="black" stroke-opacity="0.5"/>
<line y1="890.5" x2="1920" y2="890.5" stroke="black" stroke-opacity="0.5"/>
<line y1="887.5" x2="1920" y2="887.5" stroke="black" stroke-opacity="0.5"/>
<line y1="884.5" x2="1920" y2="884.5" stroke="black" stroke-opacity="0.5"/>
<line y1="881.5" x2="1920" y2="881.5" stroke="black" stroke-opacity="0.5"/>
<line y1="878.5" x2="1920" y2="878.5" stroke="black" stroke-opacity="0.5"/>
<line y1="875.5" x2="1920" y2="875.5" stroke="black" stroke-opacity="0.5"/>
<line y1="872.5" x2="1920" y2="872.5" stroke="black" stroke-opacity="0.5"/>
<line y1="869.5" x2="1920" y2="869.5" stroke="black" stroke-opacity="0.5"/>
<line y1="866.5" x2="1920" y2="866.5" stroke="black" stroke-opacity="0.5"/>
<line y1="863.5" x2="1920" y2="863.5" stroke="black" stroke-opacity="0.5"/>
<line y1="860.5" x2="1920" y2="860.5" stroke="black" stroke-opacity="0.5"/>
<line y1="857.5" x2="1920" y2="857.5" stroke="black" stroke-opacity="0.5"/>
<line y1="854.5" x2="1920" y2="854.5" stroke="black" stroke-opacity="0.5"/>
<line y1="851.5" x2="1920" y2="851.5" stroke="black" stroke-opacity="0.5"/>
<line y1="848.5" x2="1920" y2="848.5" stroke="black" stroke-opacity="0.5"/>
<line y1="845.5" x2="1920" y2="845.5" stroke="black" stroke-opacity="0.5"/>
<line y1="842.5" x2="1920" y2="842.5" stroke="black" stroke-opacity="0.5"/>
<line y1="839.5" x2="1920" y2="839.5" stroke="black" stroke-opacity="0.5"/>
<line y1="836.5" x2="1920" y2="836.5" stroke="black" stroke-opacity="0.5"/>
<line y1="833.5" x2="1920" y2="833.5" stroke="black" stroke-opacity="0.5"/>
<line y1="830.5" x2="1920" y2="830.5" stroke="black" stroke-opacity="0.5"/>
<line y1="827.5" x2="1920" y2="827.5" stroke="black" stroke-opacity="0.5"/>
<line y1="824.5" x2="1920" y2="824.5" stroke="black" stroke-opacity="0.5"/>
<line y1="821.5" x2="1920" y2="821.5" stroke="black" stroke-opacity="0.5"/>
<line y1="818.5" x2="1920" y2="818.5" stroke="black" stroke-opacity="0.5"/>
<line y1="815.5" x2="1920" y2="815.5" stroke="black" stroke-opacity="0.5"/>
<line y1="812.5" x2="1920" y2="812.5" stroke="black" stroke-opacity="0.5"/>
<line y1="809.5" x2="1920" y2="809.5" stroke="black" stroke-opacity="0.5"/>
<line y1="806.5" x2="1920" y2="806.5" stroke="black" stroke-opacity="0.5"/>
<line y1="803.5" x2="1920" y2="803.5" stroke="black" stroke-opacity="0.5"/>
<line y1="800.5" x2="1920" y2="800.5" stroke="black" stroke-opacity="0.5"/>
<line y1="797.5" x2="1920" y2="797.5" stroke="black" stroke-opacity="0.5"/>
<line y1="794.5" x2="1920" y2="794.5" stroke="black" stroke-opacity="0.5"/>
<line y1="791.5" x2="1920" y2="791.5" stroke="black" stroke-opacity="0.5"/>
<line y1="788.5" x2="1920" y2="788.5" stroke="black" stroke-opacity="0.5"/>
<line y1="785.5" x2="1920" y2="785.5" stroke="black" stroke-opacity="0.5"/>
<line y1="782.5" x2="1920" y2="782.5" stroke="black" stroke-opacity="0.5"/>
<line y1="779.5" x2="1920" y2="779.5" stroke="black" stroke-opacity="0.5"/>
<line y1="776.5" x2="1920" y2="776.5" stroke="black" stroke-opacity="0.5"/>
<line y1="773.5" x2="1920" y2="773.5" stroke="black" stroke-opacity="0.5"/>
<line y1="770.5" x2="1920" y2="770.5" stroke="black" stroke-opacity="0.5"/>
<line y1="767.5" x2="1920" y2="767.5" stroke="black" stroke-opacity="0.5"/>
<line y1="764.5" x2="1920" y2="764.5" stroke="black" stroke-opacity="0.5"/>
<line y1="761.5" x2="1920" y2="761.5" stroke="black" stroke-opacity="0.5"/>
<line y1="758.5" x2="1920" y2="758.5" stroke="black" stroke-opacity="0.5"/>
<line y1="755.5" x2="1920" y2="755.5" stroke="black" stroke-opacity="0.5"/>
<line y1="752.5" x2="1920" y2="752.5" stroke="black" stroke-opacity="0.5"/>
<line y1="749.5" x2="1920" y2="749.5" stroke="black" stroke-opacity="0.5"/>
<line y1="746.5" x2="1920" y2="746.5" stroke="black" stroke-opacity="0.5"/>
<line y1="743.5" x2="1920" y2="743.5" stroke="black" stroke-opacity="0.5"/>
<line y1="740.5" x2="1920" y2="740.5" stroke="black" stroke-opacity="0.5"/>
<line y1="737.5" x2="1920" y2="737.5" stroke="black" stroke-opacity="0.5"/>
<line y1="734.5" x2="1920" y2="734.5" stroke="black" stroke-opacity="0.5"/>
<line y1="731.5" x2="1920" y2="731.5" stroke="black" stroke-opacity="0.5"/>
<line y1="728.5" x2="1920" y2="728.5" stroke="black" stroke-opacity="0.5"/>
<line y1="725.5" x2="1920" y2="725.5" stroke="black" stroke-opacity="0.5"/>
<line y1="722.5" x2="1920" y2="722.5" stroke="black" stroke-opacity="0.5"/>
<line y1="719.5" x2="1920" y2="719.5" stroke="black" stroke-opacity="0.5"/>
<line y1="716.5" x2="1920" y2="716.5" stroke="black" stroke-opacity="0.5"/>
<line y1="713.5" x2="1920" y2="713.5" stroke="black" stroke-opacity="0.5"/>
<line y1="710.5" x2="1920" y2="710.5" stroke="black" stroke-opacity="0.5"/>
<line y1="707.5" x2="1920" y2="707.5" stroke="black" stroke-opacity="0.5"/>
<line y1="704.5" x2="1920" y2="704.5" stroke="black" stroke-opacity="0.5"/>
<line y1="701.5" x2="1920" y2="701.5" stroke="black" stroke-opacity="0.5"/>
<line y1="698.5" x2="1920" y2="698.5" stroke="black" stroke-opacity="0.5"/>
<line y1="695.5" x2="1920" y2="695.5" stroke="black" stroke-opacity="0.5"/>
<line y1="692.5" x2="1920" y2="692.5" stroke="black" stroke-opacity="0.5"/>
<line y1="689.5" x2="1920" y2="689.5" stroke="black" stroke-opacity="0.5"/>
<line y1="686.5" x2="1920" y2="686.5" stroke="black" stroke-opacity="0.5"/>
<line y1="683.5" x2="1920" y2="683.5" stroke="black" stroke-opacity="0.5"/>
<line y1="680.5" x2="1920" y2="680.5" stroke="black" stroke-opacity="0.5"/>
<line y1="677.5" x2="1920" y2="677.5" stroke="black" stroke-opacity="0.5"/>
<line y1="674.5" x2="1920" y2="674.5" stroke="black" stroke-opacity="0.5"/>
<line y1="671.5" x2="1920" y2="671.5" stroke="black" stroke-opacity="0.5"/>
<line y1="668.5" x2="1920" y2="668.5" stroke="black" stroke-opacity="0.5"/>
<line y1="665.5" x2="1920" y2="665.5" stroke="black" stroke-opacity="0.5"/>
<line y1="662.5" x2="1920" y2="662.5" stroke="black" stroke-opacity="0.5"/>
<line y1="659.5" x2="1920" y2="659.5" stroke="black" stroke-opacity="0.5"/>
<line y1="656.5" x2="1920" y2="656.5" stroke="black" stroke-opacity="0.5"/>
<line y1="653.5" x2="1920" y2="653.5" stroke="black" stroke-opacity="0.5"/>
<line y1="650.5" x2="1920" y2="650.5" stroke="black" stroke-opacity="0.5"/>
<line y1="647.5" x2="1920" y2="647.5" stroke="black" stroke-opacity="0.5"/>
<line y1="644.5" x2="1920" y2="644.5" stroke="black" stroke-opacity="0.5"/>
<line y1="641.5" x2="1920" y2="641.5" stroke="black" stroke-opacity="0.5"/>
<line y1="638.5" x2="1920" y2="638.5" stroke="black" stroke-opacity="0.5"/>
<line y1="635.5" x2="1920" y2="635.5" stroke="black" stroke-opacity="0.5"/>
<line y1="632.5" x2="1920" y2="632.5" stroke="black" stroke-opacity="0.5"/>
<line y1="629.5" x2="1920" y2="629.5" stroke="black" stroke-opacity="0.5"/>
<line y1="626.5" x2="1920" y2="626.5" stroke="black" stroke-opacity="0.5"/>
<line y1="623.5" x2="1920" y2="623.5" stroke="black" stroke-opacity="0.5"/>
<line y1="620.5" x2="1920" y2="620.5" stroke="black" stroke-opacity="0.5"/>
<line y1="617.5" x2="1920" y2="617.5" stroke="black" stroke-opacity="0.5"/>
<line y1="614.5" x2="1920" y2="614.5" stroke="black" stroke-opacity="0.5"/>
<line y1="611.5" x2="1920" y2="611.5" stroke="black" stroke-opacity="0.5"/>
<line y1="608.5" x2="1920" y2="608.5" stroke="black" stroke-opacity="0.5"/>
<line y1="605.5" x2="1920" y2="605.5" stroke="black" stroke-opacity="0.5"/>
<line y1="602.5" x2="1920" y2="602.5" stroke="black" stroke-opacity="0.5"/>
<line y1="599.5" x2="1920" y2="599.5" stroke="black" stroke-opacity="0.5"/>
<line y1="596.5" x2="1920" y2="596.5" stroke="black" stroke-opacity="0.5"/>
<line y1="593.5" x2="1920" y2="593.5" stroke="black" stroke-opacity="0.5"/>
<line y1="590.5" x2="1920" y2="590.5" stroke="black" stroke-opacity="0.5"/>
<line y1="587.5" x2="1920" y2="587.5" stroke="black" stroke-opacity="0.5"/>
<line y1="584.5" x2="1920" y2="584.5" stroke="black" stroke-opacity="0.5"/>
<line y1="581.5" x2="1920" y2="581.5" stroke="black" stroke-opacity="0.5"/>
<line y1="578.5" x2="1920" y2="578.5" stroke="black" stroke-opacity="0.5"/>
<line y1="575.5" x2="1920" y2="575.5" stroke="black" stroke-opacity="0.5"/>
<line y1="572.5" x2="1920" y2="572.5" stroke="black" stroke-opacity="0.5"/>
<line y1="569.5" x2="1920" y2="569.5" stroke="black" stroke-opacity="0.5"/>
<line y1="566.5" x2="1920" y2="566.5" stroke="black" stroke-opacity="0.5"/>
<line y1="563.5" x2="1920" y2="563.5" stroke="black" stroke-opacity="0.5"/>
<line y1="560.5" x2="1920" y2="560.5" stroke="black" stroke-opacity="0.5"/>
<line y1="557.5" x2="1920" y2="557.5" stroke="black" stroke-opacity="0.5"/>
<line y1="554.5" x2="1920" y2="554.5" stroke="black" stroke-opacity="0.5"/>
<line y1="551.5" x2="1920" y2="551.5" stroke="black" stroke-opacity="0.5"/>
<line y1="548.5" x2="1920" y2="548.5" stroke="black" stroke-opacity="0.5"/>
<line y1="545.5" x2="1920" y2="545.5" stroke="black" stroke-opacity="0.5"/>
<line y1="542.5" x2="1920" y2="542.5" stroke="black" stroke-opacity="0.5"/>
<line y1="539.5" x2="1920" y2="539.5" stroke="black" stroke-opacity="0.5"/>
<line y1="536.5" x2="1920" y2="536.5" stroke="black" stroke-opacity="0.5"/>
<line y1="533.5" x2="1920" y2="533.5" stroke="black" stroke-opacity="0.5"/>
<line y1="530.5" x2="1920" y2="530.5" stroke="black" stroke-opacity="0.5"/>
<line y1="527.5" x2="1920" y2="527.5" stroke="black" stroke-opacity="0.5"/>
<line y1="524.5" x2="1920" y2="524.5" stroke="black" stroke-opacity="0.5"/>
<line y1="521.5" x2="1920" y2="521.5" stroke="black" stroke-opacity="0.5"/>
<line y1="518.5" x2="1920" y2="518.5" stroke="black" stroke-opacity="0.5"/>
<line y1="515.5" x2="1920" y2="515.5" stroke="black" stroke-opacity="0.5"/>
<line y1="512.5" x2="1920" y2="512.5" stroke="black" stroke-opacity="0.5"/>
<line y1="509.5" x2="1920" y2="509.5" stroke="black" stroke-opacity="0.5"/>
<line y1="506.5" x2="1920" y2="506.5" stroke="black" stroke-opacity="0.5"/>
<line y1="503.5" x2="1920" y2="503.5" stroke="black" stroke-opacity="0.5"/>
<line y1="500.5" x2="1920" y2="500.5" stroke="black" stroke-opacity="0.5"/>
<line y1="497.5" x2="1920" y2="497.5" stroke="black" stroke-opacity="0.5"/>
<line y1="494.5" x2="1920" y2="494.5" stroke="black" stroke-opacity="0.5"/>
<line y1="491.5" x2="1920" y2="491.5" stroke="black" stroke-opacity="0.5"/>
<line y1="488.5" x2="1920" y2="488.5" stroke="black" stroke-opacity="0.5"/>
<line y1="485.5" x2="1920" y2="485.5" stroke="black" stroke-opacity="0.5"/>
<line y1="482.5" x2="1920" y2="482.5" stroke="black" stroke-opacity="0.5"/>
<line y1="479.5" x2="1920" y2="479.5" stroke="black" stroke-opacity="0.5"/>
<line y1="476.5" x2="1920" y2="476.5" stroke="black" stroke-opacity="0.5"/>
<line y1="473.5" x2="1920" y2="473.5" stroke="black" stroke-opacity="0.5"/>
<line y1="470.5" x2="1920" y2="470.5" stroke="black" stroke-opacity="0.5"/>
<line y1="467.5" x2="1920" y2="467.5" stroke="black" stroke-opacity="0.5"/>
<line y1="464.5" x2="1920" y2="464.5" stroke="black" stroke-opacity="0.5"/>
<line y1="461.5" x2="1920" y2="461.5" stroke="black" stroke-opacity="0.5"/>
<line y1="458.5" x2="1920" y2="458.5" stroke="black" stroke-opacity="0.5"/>
<line y1="455.5" x2="1920" y2="455.5" stroke="black" stroke-opacity="0.5"/>
<line y1="452.5" x2="1920" y2="452.5" stroke="black" stroke-opacity="0.5"/>
<line y1="449.5" x2="1920" y2="449.5" stroke="black" stroke-opacity="0.5"/>
<line y1="446.5" x2="1920" y2="446.5" stroke="black" stroke-opacity="0.5"/>
<line y1="443.5" x2="1920" y2="443.5" stroke="black" stroke-opacity="0.5"/>
<line y1="440.5" x2="1920" y2="440.5" stroke="black" stroke-opacity="0.5"/>
<line y1="437.5" x2="1920" y2="437.5" stroke="black" stroke-opacity="0.5"/>
<line y1="434.5" x2="1920" y2="434.5" stroke="black" stroke-opacity="0.5"/>
<line y1="431.5" x2="1920" y2="431.5" stroke="black" stroke-opacity="0.5"/>
<line y1="428.5" x2="1920" y2="428.5" stroke="black" stroke-opacity="0.5"/>
<line y1="425.5" x2="1920" y2="425.5" stroke="black" stroke-opacity="0.5"/>
<line y1="422.5" x2="1920" y2="422.5" stroke="black" stroke-opacity="0.5"/>
<line y1="419.5" x2="1920" y2="419.5" stroke="black" stroke-opacity="0.5"/>
<line y1="416.5" x2="1920" y2="416.5" stroke="black" stroke-opacity="0.5"/>
<line y1="413.5" x2="1920" y2="413.5" stroke="black" stroke-opacity="0.5"/>
<line y1="410.5" x2="1920" y2="410.5" stroke="black" stroke-opacity="0.5"/>
<line y1="407.5" x2="1920" y2="407.5" stroke="black" stroke-opacity="0.5"/>
<line y1="404.5" x2="1920" y2="404.5" stroke="black" stroke-opacity="0.5"/>
<line y1="401.5" x2="1920" y2="401.5" stroke="black" stroke-opacity="0.5"/>
<line y1="398.5" x2="1920" y2="398.5" stroke="black" stroke-opacity="0.5"/>
<line y1="395.5" x2="1920" y2="395.5" stroke="black" stroke-opacity="0.5"/>
<line y1="392.5" x2="1920" y2="392.5" stroke="black" stroke-opacity="0.5"/>
<line y1="389.5" x2="1920" y2="389.5" stroke="black" stroke-opacity="0.5"/>
<line y1="386.5" x2="1920" y2="386.5" stroke="black" stroke-opacity="0.5"/>
<line y1="383.5" x2="1920" y2="383.5" stroke="black" stroke-opacity="0.5"/>
<line y1="380.5" x2="1920" y2="380.5" stroke="black" stroke-opacity="0.5"/>
<line y1="377.5" x2="1920" y2="377.5" stroke="black" stroke-opacity="0.5"/>
<line y1="374.5" x2="1920" y2="374.5" stroke="black" stroke-opacity="0.5"/>
<line y1="371.5" x2="1920" y2="371.5" stroke="black" stroke-opacity="0.5"/>
<line y1="368.5" x2="1920" y2="368.5" stroke="black" stroke-opacity="0.5"/>
<line y1="365.5" x2="1920" y2="365.5" stroke="black" stroke-opacity="0.5"/>
<line y1="362.5" x2="1920" y2="362.5" stroke="black" stroke-opacity="0.5"/>
<line y1="359.5" x2="1920" y2="359.5" stroke="black" stroke-opacity="0.5"/>
<line y1="356.5" x2="1920" y2="356.5" stroke="black" stroke-opacity="0.5"/>
<line y1="353.5" x2="1920" y2="353.5" stroke="black" stroke-opacity="0.5"/>
<line y1="350.5" x2="1920" y2="350.5" stroke="black" stroke-opacity="0.5"/>
<line y1="347.5" x2="1920" y2="347.5" stroke="black" stroke-opacity="0.5"/>
<line y1="344.5" x2="1920" y2="344.5" stroke="black" stroke-opacity="0.5"/>
<line y1="341.5" x2="1920" y2="341.5" stroke="black" stroke-opacity="0.5"/>
<line y1="338.5" x2="1920" y2="338.5" stroke="black" stroke-opacity="0.5"/>
<line y1="335.5" x2="1920" y2="335.5" stroke="black" stroke-opacity="0.5"/>
<line y1="332.5" x2="1920" y2="332.5" stroke="black" stroke-opacity="0.5"/>
<line y1="329.5" x2="1920" y2="329.5" stroke="black" stroke-opacity="0.5"/>
<line y1="326.5" x2="1920" y2="326.5" stroke="black" stroke-opacity="0.5"/>
<line y1="323.5" x2="1920" y2="323.5" stroke="black" stroke-opacity="0.5"/>
<line y1="320.5" x2="1920" y2="320.5" stroke="black" stroke-opacity="0.5"/>
<line y1="317.5" x2="1920" y2="317.5" stroke="black" stroke-opacity="0.5"/>
<line y1="314.5" x2="1920" y2="314.5" stroke="black" stroke-opacity="0.5"/>
<line y1="311.5" x2="1920" y2="311.5" stroke="black" stroke-opacity="0.5"/>
<line y1="308.5" x2="1920" y2="308.5" stroke="black" stroke-opacity="0.5"/>
<line y1="305.5" x2="1920" y2="305.5" stroke="black" stroke-opacity="0.5"/>
<line y1="302.5" x2="1920" y2="302.5" stroke="black" stroke-opacity="0.5"/>
<line y1="299.5" x2="1920" y2="299.5" stroke="black" stroke-opacity="0.5"/>
<line y1="296.5" x2="1920" y2="296.5" stroke="black" stroke-opacity="0.5"/>
<line y1="293.5" x2="1920" y2="293.5" stroke="black" stroke-opacity="0.5"/>
<line y1="290.5" x2="1920" y2="290.5" stroke="black" stroke-opacity="0.5"/>
<line y1="287.5" x2="1920" y2="287.5" stroke="black" stroke-opacity="0.5"/>
<line y1="284.5" x2="1920" y2="284.5" stroke="black" stroke-opacity="0.5"/>
<line y1="281.5" x2="1920" y2="281.5" stroke="black" stroke-opacity="0.5"/>
<line y1="278.5" x2="1920" y2="278.5" stroke="black" stroke-opacity="0.5"/>
<line y1="275.5" x2="1920" y2="275.5" stroke="black" stroke-opacity="0.5"/>
<line y1="272.5" x2="1920" y2="272.5" stroke="black" stroke-opacity="0.5"/>
<line y1="269.5" x2="1920" y2="269.5" stroke="black" stroke-opacity="0.5"/>
<line y1="266.5" x2="1920" y2="266.5" stroke="black" stroke-opacity="0.5"/>
<line y1="263.5" x2="1920" y2="263.5" stroke="black" stroke-opacity="0.5"/>
<line y1="260.5" x2="1920" y2="260.5" stroke="black" stroke-opacity="0.5"/>
<line y1="257.5" x2="1920" y2="257.5" stroke="black" stroke-opacity="0.5"/>
<line y1="254.5" x2="1920" y2="254.5" stroke="black" stroke-opacity="0.5"/>
<line y1="251.5" x2="1920" y2="251.5" stroke="black" stroke-opacity="0.5"/>
<line y1="248.5" x2="1920" y2="248.5" stroke="black" stroke-opacity="0.5"/>
<line y1="245.5" x2="1920" y2="245.5" stroke="black" stroke-opacity="0.5"/>
<line y1="242.5" x2="1920" y2="242.5" stroke="black" stroke-opacity="0.5"/>
<line y1="239.5" x2="1920" y2="239.5" stroke="black" stroke-opacity="0.5"/>
<line y1="236.5" x2="1920" y2="236.5" stroke="black" stroke-opacity="0.5"/>
<line y1="233.5" x2="1920" y2="233.5" stroke="black" stroke-opacity="0.5"/>
<line y1="230.5" x2="1920" y2="230.5" stroke="black" stroke-opacity="0.5"/>
<line y1="227.5" x2="1920" y2="227.5" stroke="black" stroke-opacity="0.5"/>
<line y1="224.5" x2="1920" y2="224.5" stroke="black" stroke-opacity="0.5"/>
<line y1="221.5" x2="1920" y2="221.5" stroke="black" stroke-opacity="0.5"/>
<line y1="218.5" x2="1920" y2="218.5" stroke="black" stroke-opacity="0.5"/>
<line y1="215.5" x2="1920" y2="215.5" stroke="black" stroke-opacity="0.5"/>
<line y1="212.5" x2="1920" y2="212.5" stroke="black" stroke-opacity="0.5"/>
<line y1="209.5" x2="1920" y2="209.5" stroke="black" stroke-opacity="0.5"/>
<line y1="206.5" x2="1920" y2="206.5" stroke="black" stroke-opacity="0.5"/>
<line y1="203.5" x2="1920" y2="203.5" stroke="black" stroke-opacity="0.5"/>
<line y1="200.5" x2="1920" y2="200.5" stroke="black" stroke-opacity="0.5"/>
<line y1="197.5" x2="1920" y2="197.5" stroke="black" stroke-opacity="0.5"/>
<line y1="194.5" x2="1920" y2="194.5" stroke="black" stroke-opacity="0.5"/>
<line y1="191.5" x2="1920" y2="191.5" stroke="black" stroke-opacity="0.5"/>
<line y1="188.5" x2="1920" y2="188.5" stroke="black" stroke-opacity="0.5"/>
<line y1="185.5" x2="1920" y2="185.5" stroke="black" stroke-opacity="0.5"/>
<line y1="182.5" x2="1920" y2="182.5" stroke="black" stroke-opacity="0.5"/>
<line y1="179.5" x2="1920" y2="179.5" stroke="black" stroke-opacity="0.5"/>
<line y1="176.5" x2="1920" y2="176.5" stroke="black" stroke-opacity="0.5"/>
<line y1="173.5" x2="1920" y2="173.5" stroke="black" stroke-opacity="0.5"/>
<line y1="170.5" x2="1920" y2="170.5" stroke="black" stroke-opacity="0.5"/>
<line y1="167.5" x2="1920" y2="167.5" stroke="black" stroke-opacity="0.5"/>
<line y1="164.5" x2="1920" y2="164.5" stroke="black" stroke-opacity="0.5"/>
<line y1="161.5" x2="1920" y2="161.5" stroke="black" stroke-opacity="0.5"/>
<line y1="158.5" x2="1920" y2="158.5" stroke="black" stroke-opacity="0.5"/>
<line y1="155.5" x2="1920" y2="155.5" stroke="black" stroke-opacity="0.5"/>
<line y1="152.5" x2="1920" y2="152.5" stroke="black" stroke-opacity="0.5"/>
<line y1="149.5" x2="1920" y2="149.5" stroke="black" stroke-opacity="0.5"/>
<line y1="146.5" x2="1920" y2="146.5" stroke="black" stroke-opacity="0.5"/>
<line y1="143.5" x2="1920" y2="143.5" stroke="black" stroke-opacity="0.5"/>
<line y1="140.5" x2="1920" y2="140.5" stroke="black" stroke-opacity="0.5"/>
<line y1="137.5" x2="1920" y2="137.5" stroke="black" stroke-opacity="0.5"/>
<line y1="134.5" x2="1920" y2="134.5" stroke="black" stroke-opacity="0.5"/>
<line y1="131.5" x2="1920" y2="131.5" stroke="black" stroke-opacity="0.5"/>
<line y1="128.5" x2="1920" y2="128.5" stroke="black" stroke-opacity="0.5"/>
<line y1="125.5" x2="1920" y2="125.5" stroke="black" stroke-opacity="0.5"/>
<line y1="122.5" x2="1920" y2="122.5" stroke="black" stroke-opacity="0.5"/>
<line y1="119.5" x2="1920" y2="119.5" stroke="black" stroke-opacity="0.5"/>
<line y1="116.5" x2="1920" y2="116.5" stroke="black" stroke-opacity="0.5"/>
<line y1="113.5" x2="1920" y2="113.5" stroke="black" stroke-opacity="0.5"/>
<line y1="110.5" x2="1920" y2="110.5" stroke="black" stroke-opacity="0.5"/>
<line y1="107.5" x2="1920" y2="107.5" stroke="black" stroke-opacity="0.5"/>
<line y1="104.5" x2="1920" y2="104.5" stroke="black" stroke-opacity="0.5"/>
<line y1="101.5" x2="1920" y2="101.5" stroke="black" stroke-opacity="0.5"/>
<line y1="98.5" x2="1920" y2="98.5" stroke="black" stroke-opacity="0.5"/>
<line y1="95.5" x2="1920" y2="95.5" stroke="black" stroke-opacity="0.5"/>
<line y1="92.5" x2="1920" y2="92.5" stroke="black" stroke-opacity="0.5"/>
<line y1="89.5" x2="1920" y2="89.5" stroke="black" stroke-opacity="0.5"/>
<line y1="86.5" x2="1920" y2="86.5" stroke="black" stroke-opacity="0.5"/>
<line y1="83.5" x2="1920" y2="83.5" stroke="black" stroke-opacity="0.5"/>
<line y1="80.5" x2="1920" y2="80.5" stroke="black" stroke-opacity="0.5"/>
<line y1="77.5" x2="1920" y2="77.5" stroke="black" stroke-opacity="0.5"/>
<line y1="74.5" x2="1920" y2="74.5" stroke="black" stroke-opacity="0.5"/>
<line y1="71.5" x2="1920" y2="71.5" stroke="black" stroke-opacity="0.5"/>
<line y1="68.5" x2="1920" y2="68.5" stroke="black" stroke-opacity="0.5"/>
<line y1="65.5" x2="1920" y2="65.5" stroke="black" stroke-opacity="0.5"/>
<line y1="62.5" x2="1920" y2="62.5" stroke="black" stroke-opacity="0.5"/>
<line y1="59.5" x2="1920" y2="59.5" stroke="black" stroke-opacity="0.5"/>
<line y1="56.5" x2="1920" y2="56.5" stroke="black" stroke-opacity="0.5"/>
<line y1="53.5" x2="1920" y2="53.5" stroke="black" stroke-opacity="0.5"/>
<line y1="50.5" x2="1920" y2="50.5" stroke="black" stroke-opacity="0.5"/>
<line y1="47.5" x2="1920" y2="47.5" stroke="black" stroke-opacity="0.5"/>
<line y1="44.5" x2="1920" y2="44.5" stroke="black" stroke-opacity="0.5"/>
<line y1="41.5" x2="1920" y2="41.5" stroke="black" stroke-opacity="0.5"/>
<line y1="38.5" x2="1920" y2="38.5" stroke="black" stroke-opacity="0.5"/>
<line y1="35.5" x2="1920" y2="35.5" stroke="black" stroke-opacity="0.5"/>
<line y1="32.5" x2="1920" y2="32.5" stroke="black" stroke-opacity="0.5"/>
<line y1="29.5" x2="1920" y2="29.5" stroke="black" stroke-opacity="0.5"/>
<line y1="26.5" x2="1920" y2="26.5" stroke="black" stroke-opacity="0.5"/>
<line y1="23.5" x2="1920" y2="23.5" stroke="black" stroke-opacity="0.5"/>
<line y1="20.5" x2="1920" y2="20.5" stroke="black" stroke-opacity="0.5"/>
<line y1="17.5" x2="1920" y2="17.5" stroke="black" stroke-opacity="0.5"/>
<line y1="14.5" x2="1920" y2="14.5" stroke="black" stroke-opacity="0.5"/>
<line y1="11.5" x2="1920" y2="11.5" stroke="black" stroke-opacity="0.5"/>
<line y1="8.5" x2="1920" y2="8.5" stroke="black" stroke-opacity="0.5"/>
<line y1="5.5" x2="1920" y2="5.5" stroke="black" stroke-opacity="0.5"/>
<line y1="2.5" x2="1920" y2="2.5" stroke="black" stroke-opacity="0.5"/>
</svg>
